# xmcd
#
# Track frame offsets:
#	150
#	6896
#	19779
#	30447
#	54834
#	72342
#	81066
#	98860
#	126734
#	133254
#	154200
#	177215
#	195887
#	207471
#	219483
#	249554
#	271465
#	291666
#	307248
#	308976
#	332670
#
# Disc length: 4761 seconds
#
# Revision: 0
# Processed by: cddbd v1.5PL3 Copyright (c) Steve Scherf et al.
# Submitted via: dBpowerAMP V4.0
#
DISCID=3d129715
DTITLE=andre 3000 - the love below
DYEAR=1900
DGENRE=
TTITLE0=song 1
TTITLE1=song 2
TTITLE2=song 3
TTITLE3=song4
TTITLE4=song 5
TTITLE5=song 6
TTITLE6=hey ya
TTITLE7=roses
TTITLE8=good day, good sir
TTITLE9=behold, a lady
TTITLE10=pink and blue
TTITLE11=love in war
TTITLE12=shes alive
TTITLE13=dracula,s wedding
TTITLE14=take off your kool
TTITLE15=vibrate
TTITLE16=song 17
TTITLE17=song 18
TTITLE18=song 19
TTITLE19=song 20
TTITLE20=song 21
EXTD=thelove below
EXTT0=
EXTT1=
EXTT2=
EXTT3=
EXTT4=
EXTT5=
EXTT6=
EXTT7=
EXTT8=
EXTT9=
EXTT10=
EXTT11=
EXTT12=
EXTT13=
EXTT14=
EXTT15=
EXTT16=
EXTT17=
EXTT18=
EXTT19=
EXTT20=
PLAYORDER=
